<svg width="89" height="80" viewBox="0 0 89 80" fill="none" xmlns="http://www.w3.org/2000/svg">
<path d="M72.4052 7H68.4163V0H60.4386V7H28.5275V0H20.5497V7H16.5608C12.1331 7 8.6229 10.15 8.6229 14L8.58301 63C8.58301 66.85 12.1331 70 16.5608 70H72.4052C76.793 70 80.383 66.85 80.383 63V14C80.383 10.15 76.793 7 72.4052 7ZM72.4052 63H16.5608V28H72.4052V63ZM32.5163 42H24.5386V35H32.5163V42ZM48.4719 42H40.4941V35H48.4719V42ZM64.4275 42H56.4497V35H64.4275V42ZM32.5163 56H24.5386V49H32.5163V56ZM48.4719 56H40.4941V49H48.4719V56ZM64.4275 56H56.4497V49H64.4275V56Z" fill="black"/>
</svg>
