<svg width="90" height="105" viewBox="0 0 90 105" fill="none" xmlns="http://www.w3.org/2000/svg">
<g clip-path="url(#clip0_24_53)">
<path d="M70.7143 26.5C70.7143 40.8609 59.2031 52.5 44.8192 52.5C30.7969 52.5 19.1049 40.8609 19.1049 26.5C19.1049 12.1411 30.7969 0.5 44.8192 0.5C59.2031 0.5 70.7143 12.1411 70.7143 26.5ZM57.6763 74.0312C52.3125 75.4734 48.0335 80.5719 48.0335 86.625V91.5C48.0335 92.3531 48.5558 93.1859 49.1585 93.7953L52.3728 97.0453C53.6183 98.325 55.6674 98.325 56.9129 97.0453C58.1786 95.7859 58.1786 93.7141 56.9129 92.4547L54.4621 90.1594V86.625C54.4621 83.0297 57.5156 80.125 60.8906 80.125C64.6272 80.125 67.5 83.0297 67.5 86.625V90.1594L65.2299 92.4547C63.9643 93.7141 63.9643 95.7859 65.2299 97.0453C66.4754 98.325 68.5246 98.325 69.7701 97.0453L72.9844 93.7953C73.5871 93.1859 73.9286 92.3531 73.9286 91.5V86.625C73.9286 80.5719 69.8304 75.4734 64.2857 74.0312V63.225C79.0513 66.8609 90 80.1453 90 96.375V98C90 101.595 87.1272 104.5 83.5714 104.5H6.42857C2.87879 104.5 0 101.595 0 98V96.375C0 80.3281 10.9547 66.8609 25.7143 63.225V75.7172C21.0737 77.1187 17.6786 81.4656 17.6786 86.625C17.6786 92.9016 22.721 98 28.9286 98C35.1362 98 40.1786 92.9016 40.1786 86.625C40.1786 81.4656 36.7835 77.1187 32.1429 75.7172V62.2906C32.6853 62.2703 33.2076 62.25 33.75 62.25H56.25C56.7924 62.25 57.3147 62.2703 57.8571 62.2906L57.6763 74.0312ZM33.5692 86.625C33.5692 89.3266 31.6004 91.5 28.7478 91.5C26.2567 91.5 23.9263 89.3266 23.9263 86.625C23.9263 83.9234 26.2567 81.75 28.7478 81.75C31.6004 81.75 33.5692 83.9234 33.5692 86.625Z" fill="#41D399"/>
</g>
<defs>
<clipPath id="clip0_24_53">
<rect width="90" height="104" fill="white" transform="translate(0 0.5)"/>
</clipPath>
</defs>
</svg>
